# Blender v2.79 (sub 0) OBJ File: 'untitled.blend'
# www.blender.org
mtllib kostka_000009.mtl
o Cube
v 0.987951 -0.782150 -1.397516
v 0.900106 -1.114565 0.543824
v -1.093420 -1.159119 0.431643
v -1.004300 -0.821280 -1.507829
v 0.909535 1.000000 -1.316789
v 0.909534 1.000000 0.683211
v -1.090465 1.000000 0.683210
v -1.090465 1.000000 -1.316790
vn 0.0301 -0.9852 -0.1688
vn 0.0000 1.0000 0.0000
vn 0.9996 0.0164 0.0237
vn -0.0269 -0.0910 0.9955
vn -0.9995 -0.0182 -0.0242
vn 0.0268 0.0764 -0.9967
usemtl Material
s off
f 1//1 2//1 3//1 4//1
f 5//2 8//2 7//2 6//2
f 1//3 5//3 6//3 2//3
f 2//4 6//4 7//4 3//4
f 3//5 7//5 8//5 4//5
f 5//6 1//6 4//6 8//6
