# Blender v2.79 (sub 0) OBJ File: 'untitled.blend'
# www.blender.org
mtllib kostka_000103.mtl
o Cube
v 1.009059 -0.732261 -1.302050
v 0.942421 -1.081469 0.635361
v -1.043894 -1.197060 0.518950
v -0.976823 -0.843341 -1.416508
v 0.909535 1.000000 -1.220365
v 0.909534 1.000000 0.779635
v -1.090465 1.000000 0.779634
v -1.090465 1.000000 -1.220366
vn 0.0663 -0.9822 -0.1760
vn 0.0000 1.0000 0.0000
vn 0.9992 0.0335 0.0199
vn -0.0263 -0.0947 0.9952
vn -0.9991 -0.0373 -0.0204
vn 0.0264 0.0790 -0.9965
usemtl Material
s off
f 1//1 2//1 3//1 4//1
f 5//2 8//2 7//2 6//2
f 1//3 5//3 6//3 2//3
f 2//4 6//4 7//4 3//4
f 3//5 7//5 8//5 4//5
f 5//6 1//6 4//6 8//6
