# Blender v2.79 (sub 0) OBJ File: 'untitled.blend'
# www.blender.org
mtllib kostka_000047.mtl
o Cube
v -0.087124 -0.911884 -1.301091
v -0.329186 -0.703335 0.640249
v -0.995925 0.233857 0.528067
v -0.720497 0.026355 -1.411405
v 0.909535 1.000000 -1.220365
v 0.909534 1.000000 0.779635
v -1.090465 1.000000 0.779634
v -1.090465 1.000000 -1.220366
vn -0.8182 -0.5729 -0.0477
vn 0.0000 1.0000 0.0000
vn 0.8456 -0.5277 0.0799
vn -0.0831 -0.1181 0.9895
vn -0.9681 -0.2445 -0.0548
vn 0.0696 0.0785 -0.9945
usemtl Material
s off
f 1//1 2//1 3//1 4//1
f 5//2 8//2 7//2 6//2
f 1//3 5//3 6//3 2//3
f 2//4 6//4 7//4 3//4
f 3//5 7//5 8//5 4//5
f 5//6 1//6 4//6 8//6
