# Blender v2.79 (sub 0) OBJ File: 'untitled.blend'
# www.blender.org
mtllib kostka_000004.mtl
o Cube
v 1.023515 -0.694324 -1.414195
v 0.983627 -1.037823 0.527144
v -0.990864 -1.225540 0.414963
v -0.951395 -0.878889 -1.524509
v 0.909535 1.000000 -1.333469
v 0.909534 1.000000 0.666531
v -1.090465 1.000000 0.666530
v -1.090465 1.000000 -1.333470
vn 0.1021 -0.9798 -0.1722
vn 0.0000 1.0000 0.0000
vn 0.9987 0.0495 0.0144
vn -0.0237 -0.0923 0.9955
vn -0.9983 -0.0564 -0.0150
vn 0.0241 0.0775 -0.9967
usemtl Material
s off
f 1//1 2//1 3//1 4//1
f 5//2 8//2 7//2 6//2
f 1//3 5//3 6//3 2//3
f 2//4 6//4 7//4 3//4
f 3//5 7//5 8//5 4//5
f 5//6 1//6 4//6 8//6
