# Blender v2.79 (sub 0) OBJ File: 'untitled.blend'
# www.blender.org
mtllib kostka_000086.mtl
o Cube
v 0.320665 -1.139438 -1.298188
v 0.001100 -1.156350 0.644830
v -1.380000 -0.230330 0.530964
v -1.037336 -0.202813 -1.410291
v 0.909535 1.000000 -1.220365
v 0.909534 1.000000 0.779635
v -1.090465 1.000000 0.779634
v -1.090465 1.000000 -1.220366
vn -0.5534 -0.8264 -0.1038
vn 0.0000 1.0000 0.0000
vn 0.9405 -0.3315 0.0748
vn -0.0586 -0.0918 0.9940
vn -0.9901 0.1116 -0.0853
vn 0.0531 0.0713 -0.9960
usemtl Material
s off
f 1//1 2//1 3//1 4//1
f 5//2 8//2 7//2 6//2
f 1//3 5//3 6//3 2//3
f 2//4 6//4 7//4 3//4
f 3//5 7//5 8//5 4//5
f 5//6 1//6 4//6 8//6
