# Blender v2.79 (sub 0) OBJ File: 'untitled.blend'
# www.blender.org
mtllib kostka_000060.mtl
o Cube
v -0.174358 -0.776874 -1.301091
v -0.354270 -0.512563 0.640248
v -0.803718 0.311449 0.528067
v -0.588938 0.043619 -1.411405
v 0.909535 1.000000 -1.220365
v 0.909534 1.000000 0.779635
v -1.090465 1.000000 0.779634
v -1.090465 1.000000 -1.220366
vn -0.8835 -0.4677 -0.0257
vn 0.0000 1.0000 0.0000
vn 0.8092 -0.5826 0.0760
vn -0.0906 -0.1350 0.9867
vn -0.9037 -0.4276 -0.0202
vn 0.0736 0.0831 -0.9938
usemtl Material
s off
f 1//1 2//1 3//1 4//1
f 5//2 8//2 7//2 6//2
f 1//3 5//3 6//3 2//3
f 2//4 6//4 7//4 3//4
f 3//5 7//5 8//5 4//5
f 5//6 1//6 4//6 8//6
