# Blender v2.79 (sub 0) OBJ File: 'untitled.blend'
# www.blender.org
mtllib kostka_000059.mtl
o Cube
v -0.173969 -0.777680 -1.301091
v -0.354263 -0.513634 0.640249
v -0.804834 0.311153 0.528067
v -0.589676 0.043614 -1.411405
v 0.909535 1.000000 -1.220365
v 0.909534 1.000000 0.779635
v -1.090465 1.000000 0.779634
v -1.090465 1.000000 -1.220366
vn -0.8832 -0.4683 -0.0259
vn 0.0000 1.0000 0.0000
vn 0.8094 -0.5823 0.0760
vn -0.0906 -0.1349 0.9867
vn -0.9042 -0.4267 -0.0204
vn 0.0736 0.0831 -0.9938
usemtl Material
s off
f 1//1 2//1 3//1 4//1
f 5//2 8//2 7//2 6//2
f 1//3 5//3 6//3 2//3
f 2//4 6//4 7//4 3//4
f 3//5 7//5 8//5 4//5
f 5//6 1//6 4//6 8//6
