# Blender v2.79 (sub 0) OBJ File: 'untitled.blend'
# www.blender.org
mtllib kostka_000041.mtl
o Cube
v 0.032329 -1.022353 -1.301091
v -0.256667 -0.884094 0.640249
v -1.164901 0.109491 0.528067
v -0.845160 -0.023620 -1.411405
v 0.909535 1.000000 -1.220365
v 0.909534 1.000000 0.779635
v -1.090465 1.000000 0.779634
v -1.090465 1.000000 -1.220366
vn -0.7390 -0.6701 -0.0691
vn 0.0000 1.0000 0.0000
vn 0.8813 -0.4656 0.0810
vn -0.0746 -0.1064 0.9915
vn -0.9944 -0.0707 -0.0783
vn 0.0643 0.0754 -0.9951
usemtl Material
s off
f 1//1 2//1 3//1 4//1
f 5//2 8//2 7//2 6//2
f 1//3 5//3 6//3 2//3
f 2//4 6//4 7//4 3//4
f 3//5 7//5 8//5 4//5
f 5//6 1//6 4//6 8//6
