# Blender v2.79 (sub 0) OBJ File: 'untitled.blend'
# www.blender.org
mtllib kostka_000107.mtl
o Cube
v 1.052664 -0.440101 -1.300543
v 1.142934 -0.785947 0.638044
v -0.682204 -1.325125 0.521109
v -0.775617 -0.982977 -1.415584
v 0.909535 1.000000 -1.220365
v 0.909534 1.000000 0.779635
v -1.090465 1.000000 0.779634
v -1.090465 1.000000 -1.220366
vn 0.2898 -0.9399 -0.1806
vn 0.0000 1.0000 0.0000
vn 0.9931 0.1168 -0.0125
vn -0.0164 -0.0994 0.9949
vn -0.9860 -0.1664 0.0089
vn 0.0182 0.0826 -0.9964
usemtl Material
s off
f 1//1 2//1 3//1 4//1
f 5//2 8//2 7//2 6//2
f 1//3 5//3 6//3 2//3
f 2//4 6//4 7//4 3//4
f 3//5 7//5 8//5 4//5
f 5//6 1//6 4//6 8//6
