# Blender v2.79 (sub 0) OBJ File: 'untitled.blend'
# www.blender.org
mtllib kostka_000055.mtl
o Cube
v -0.163869 -0.797676 -1.301091
v -0.353598 -0.540442 0.640248
v -0.832614 0.303231 0.528067
v -0.608163 0.043160 -1.411405
v 0.909535 1.000000 -1.220365
v 0.909534 1.000000 0.779635
v -1.090465 1.000000 0.779634
v -1.090465 1.000000 -1.220366
vn -0.8749 -0.4834 -0.0289
vn 0.0000 1.0000 0.0000
vn 0.8144 -0.5751 0.0767
vn -0.0897 -0.1322 0.9872
vn -0.9150 -0.4027 -0.0255
vn 0.0732 0.0824 -0.9939
usemtl Material
s off
f 1//1 2//1 3//1 4//1
f 5//2 8//2 7//2 6//2
f 1//3 5//3 6//3 2//3
f 2//4 6//4 7//4 3//4
f 3//5 7//5 8//5 4//5
f 5//6 1//6 4//6 8//6
