# Blender v2.79 (sub 0) OBJ File: 'untitled.blend'
# www.blender.org
mtllib kostka_000095.mtl
o Cube
v 0.630070 -1.100783 -1.303868
v 0.342673 -1.280333 0.634896
v -1.415051 -0.625261 0.523023
v -1.113410 -0.433575 -1.413758
v 0.909535 1.000000 -1.220365
v 0.909534 1.000000 0.779635
v -1.090465 1.000000 0.779634
v -1.090465 1.000000 -1.220366
vn -0.3420 -0.9291 -0.1410
vn 0.0000 1.0000 0.0000
vn 0.9793 -0.1924 0.0627
vn -0.0456 -0.0918 0.9947
vn -0.9900 0.1228 -0.0699
vn 0.0425 0.0744 -0.9963
usemtl Material
s off
f 1//1 2//1 3//1 4//1
f 5//2 8//2 7//2 6//2
f 1//3 5//3 6//3 2//3
f 2//4 6//4 7//4 3//4
f 3//5 7//5 8//5 4//5
f 5//6 1//6 4//6 8//6
