# Blender v2.79 (sub 0) OBJ File: 'untitled.blend'
# www.blender.org
mtllib kostka_000111.mtl
o Cube
v 0.994085 -0.221448 -1.300314
v 1.193785 -0.515734 0.639678
v -0.387999 -1.304394 0.524416
v -0.590848 -1.020711 -1.413709
v 0.909535 1.000000 -1.220365
v 0.909534 1.000000 0.779635
v -1.090465 1.000000 0.779634
v -1.090465 1.000000 -1.220366
vn 0.4513 -0.8746 -0.1772
vn 0.0000 1.0000 0.0000
vn 0.9898 0.1366 -0.0400
vn -0.0088 -0.1052 0.9944
vn -0.9622 -0.2706 0.0301
vn 0.0123 0.0862 -0.9962
usemtl Material
s off
f 1//1 2//1 3//1 4//1
f 5//2 8//2 7//2 6//2
f 1//3 5//3 6//3 2//3
f 2//4 6//4 7//4 3//4
f 3//5 7//5 8//5 4//5
f 5//6 1//6 4//6 8//6
