# Blender v2.79 (sub 0) OBJ File: 'untitled.blend'
# www.blender.org
mtllib kostka_000088.mtl
o Cube
v 0.380262 -1.143562 -1.299525
v 0.060781 -1.192231 0.642801
v -1.401118 -0.303319 0.529819
v -1.060147 -0.243431 -1.410697
v 0.909535 1.000000 -1.220365
v 0.909534 1.000000 0.779635
v -1.090465 1.000000 0.779634
v -1.090465 1.000000 -1.220366
vn -0.5152 -0.8498 -0.1114
vn 0.0000 1.0000 0.0000
vn 0.9494 -0.3054 0.0732
vn -0.0559 -0.0914 0.9942
vn -0.9888 0.1233 -0.0837
vn 0.0510 0.0718 -0.9961
usemtl Material
s off
f 1//1 2//1 3//1 4//1
f 5//2 8//2 7//2 6//2
f 1//3 5//3 6//3 2//3
f 2//4 6//4 7//4 3//4
f 3//5 7//5 8//5 4//5
f 5//6 1//6 4//6 8//6
