# Blender v2.79 (sub 0) OBJ File: 'untitled.blend'
# www.blender.org
mtllib kostka_000067.mtl
o Cube
v -0.144089 -0.835228 -1.299526
v -0.348864 -0.591407 0.642216
v -0.884305 0.285553 0.528372
v -0.645184 0.040123 -1.411552
v 0.909535 1.000000 -1.220365
v 0.909534 1.000000 0.779635
v -1.090465 1.000000 0.779634
v -1.090465 1.000000 -1.220366
vn -0.8583 -0.5120 -0.0336
vn 0.0000 1.0000 0.0000
vn 0.8242 -0.5610 0.0775
vn -0.0881 -0.1264 0.9881
vn -0.9344 -0.3544 -0.0346
vn 0.0726 0.0803 -0.9941
usemtl Material
s off
f 1//1 2//1 3//1 4//1
f 5//2 8//2 7//2 6//2
f 1//3 5//3 6//3 2//3
f 2//4 6//4 7//4 3//4
f 3//5 7//5 8//5 4//5
f 5//6 1//6 4//6 8//6
