# Blender v2.79 (sub 0) OBJ File: 'untitled.blend'
# www.blender.org
mtllib kostka_000075.mtl
o Cube
v -0.005055 -0.999103 -1.296278
v -0.276570 -0.838986 0.646767
v -1.123164 0.145785 0.530217
v -0.820282 -0.010215 -1.411118
v 0.909535 1.000000 -1.220365
v 0.909534 1.000000 0.779635
v -1.090465 1.000000 0.779634
v -1.090465 1.000000 -1.220366
vn -0.7601 -0.6470 -0.0597
vn 0.0000 1.0000 0.0000
vn 0.8726 -0.4819 0.0797
vn -0.0772 -0.1058 0.9914
vn -0.9914 -0.1093 -0.0719
vn 0.0666 0.0739 -0.9950
usemtl Material
s off
f 1//1 2//1 3//1 4//1
f 5//2 8//2 7//2 6//2
f 1//3 5//3 6//3 2//3
f 2//4 6//4 7//4 3//4
f 3//5 7//5 8//5 4//5
f 5//6 1//6 4//6 8//6
