# Blender v2.79 (sub 0) OBJ File: 'untitled.blend'
# www.blender.org
mtllib kostka_000114.mtl
o Cube
v 0.938927 -0.126448 -1.300632
v 1.183375 -0.382290 0.640121
v -0.252531 -1.257270 0.526422
v -0.499252 -1.015280 -1.412468
v 0.909535 1.000000 -1.220365
v 0.909534 1.000000 0.779635
v -1.090465 1.000000 0.779634
v -1.090465 1.000000 -1.220366
vn 0.5250 -0.8333 -0.1734
vn 0.0000 1.0000 0.0000
vn 0.9908 0.1244 -0.0534
vn -0.0052 -0.1088 0.9940
vn -0.9464 -0.3207 0.0396
vn 0.0096 0.0882 -0.9961
usemtl Material
s off
f 1//1 2//1 3//1 4//1
f 5//2 8//2 7//2 6//2
f 1//3 5//3 6//3 2//3
f 2//4 6//4 7//4 3//4
f 3//5 7//5 8//5 4//5
f 5//6 1//6 4//6 8//6
