# Blender v2.79 (sub 0) OBJ File: 'untitled.blend'
# www.blender.org
mtllib kostka_000105.mtl
o Cube
v 1.048657 -0.583345 -1.301155
v 1.063449 -0.940167 0.636746
v -0.864030 -1.284486 0.519726
v -0.880717 -0.927193 -1.416253
v 0.909535 1.000000 -1.220365
v 0.909534 1.000000 0.779635
v -1.090465 1.000000 0.779634
v -1.090465 1.000000 -1.220366
vn 0.1833 -0.9665 -0.1797
vn 0.0000 1.0000 0.0000
vn 0.9966 0.0826 0.0037
vn -0.0212 -0.0968 0.9951
vn -0.9947 -0.1025 -0.0051
vn 0.0221 0.0807 -0.9965
usemtl Material
s off
f 1//1 2//1 3//1 4//1
f 5//2 8//2 7//2 6//2
f 1//3 5//3 6//3 2//3
f 2//4 6//4 7//4 3//4
f 3//5 7//5 8//5 4//5
f 5//6 1//6 4//6 8//6
