# Blender v2.79 (sub 0) OBJ File: 'untitled.blend'
# www.blender.org
mtllib kostka_000039.mtl
o Cube
v 0.081151 -1.054004 -1.301091
v -0.220102 -0.943373 0.640248
v -1.216869 0.055374 0.528067
v -0.886045 -0.048825 -1.411405
v 0.909535 1.000000 -1.220365
v 0.909534 1.000000 0.779635
v -1.090465 1.000000 0.779634
v -1.090465 1.000000 -1.220366
vn -0.7078 -0.7022 -0.0764
vn 0.0000 1.0000 0.0000
vn 0.8934 -0.4420 0.0807
vn -0.0715 -0.1032 0.9921
vn -0.9963 -0.0205 -0.0831
vn 0.0623 0.0746 -0.9953
usemtl Material
s off
f 1//1 2//1 3//1 4//1
f 5//2 8//2 7//2 6//2
f 1//3 5//3 6//3 2//3
f 2//4 6//4 7//4 3//4
f 3//5 7//5 8//5 4//5
f 5//6 1//6 4//6 8//6
