# Blender v2.79 (sub 0) OBJ File: 'untitled.blend'
# www.blender.org
mtllib kostka_000030.mtl
o Cube
v 0.310965 -1.135420 -1.301091
v -0.013318 -1.149328 0.640248
v -1.375926 -0.215819 0.528067
v -1.028107 -0.191384 -1.411405
v 0.909535 1.000000 -1.220365
v 0.909534 1.000000 0.779635
v -1.090465 1.000000 0.779634
v -1.090465 1.000000 -1.220366
vn -0.5616 -0.8206 -0.1054
vn 0.0000 1.0000 0.0000
vn 0.9384 -0.3371 0.0760
vn -0.0593 -0.0942 0.9938
vn -0.9904 0.1077 -0.0868
vn 0.0535 0.0727 -0.9959
usemtl Material
s off
f 1//1 2//1 3//1 4//1
f 5//2 8//2 7//2 6//2
f 1//3 5//3 6//3 2//3
f 2//4 6//4 7//4 3//4
f 3//5 7//5 8//5 4//5
f 5//6 1//6 4//6 8//6
