# Blender v2.79 (sub 0) OBJ File: 'untitled.blend'
# www.blender.org
mtllib kostka_000061.mtl
o Cube
v -0.173817 -0.778068 -1.301056
v -0.354239 -0.514139 0.640292
v -0.805348 0.311014 0.528072
v -0.590066 0.043604 -1.411410
v 0.909535 1.000000 -1.220365
v 0.909534 1.000000 0.779635
v -1.090465 1.000000 0.779634
v -1.090465 1.000000 -1.220366
vn -0.8830 -0.4686 -0.0259
vn 0.0000 1.0000 0.0000
vn 0.8095 -0.5822 0.0760
vn -0.0906 -0.1348 0.9867
vn -0.9044 -0.4262 -0.0205
vn 0.0736 0.0831 -0.9938
usemtl Material
s off
f 1//1 2//1 3//1 4//1
f 5//2 8//2 7//2 6//2
f 1//3 5//3 6//3 2//3
f 2//4 6//4 7//4 3//4
f 3//5 7//5 8//5 4//5
f 5//6 1//6 4//6 8//6
