# Blender v2.79 (sub 0) OBJ File: 'untitled.blend'
# www.blender.org
mtllib kostka_000112.mtl
o Cube
v 0.974772 -0.183710 -1.300399
v 1.192498 -0.464132 0.639882
v -0.334855 -1.289013 0.525161
v -0.555460 -1.020463 -1.413256
v 0.909535 1.000000 -1.220365
v 0.909534 1.000000 0.779635
v -1.090465 1.000000 0.779634
v -1.090465 1.000000 -1.220366
vn 0.4801 -0.8594 -0.1759
vn 0.0000 1.0000 0.0000
vn 0.9900 0.1339 -0.0452
vn -0.0074 -0.1065 0.9943
vn -0.9564 -0.2899 0.0338
vn 0.0112 0.0870 -0.9961
usemtl Material
s off
f 1//1 2//1 3//1 4//1
f 5//2 8//2 7//2 6//2
f 1//3 5//3 6//3 2//3
f 2//4 6//4 7//4 3//4
f 3//5 7//5 8//5 4//5
f 5//6 1//6 4//6 8//6
