# Blender v2.79 (sub 0) OBJ File: 'untitled.blend'
# www.blender.org
mtllib kostka_000040.mtl
o Cube
v 0.056368 -1.038718 -1.301091
v -0.239064 -0.914126 0.640249
v -1.191478 0.083035 0.528067
v -0.865873 -0.035754 -1.411405
v 0.909535 1.000000 -1.220365
v 0.909534 1.000000 0.779635
v -1.090465 1.000000 0.779634
v -1.090465 1.000000 -1.220366
vn -0.7236 -0.6863 -0.0728
vn 0.0000 1.0000 0.0000
vn 0.8874 -0.4539 0.0809
vn -0.0731 -0.1047 0.9918
vn -0.9957 -0.0447 -0.0810
vn 0.0633 0.0750 -0.9952
usemtl Material
s off
f 1//1 2//1 3//1 4//1
f 5//2 8//2 7//2 6//2
f 1//3 5//3 6//3 2//3
f 2//4 6//4 7//4 3//4
f 3//5 7//5 8//5 4//5
f 5//6 1//6 4//6 8//6
