# Blender v2.79 (sub 0) OBJ File: 'untitled.blend'
# www.blender.org
mtllib kostka_000089.mtl
o Cube
v 0.409500 -1.143481 -1.300282
v 0.090864 -1.207788 0.641590
v -1.409051 -0.339529 0.529024
v -1.069722 -0.263753 -1.411010
v 0.909535 1.000000 -1.220365
v 0.909534 1.000000 0.779635
v -1.090465 1.000000 0.779634
v -1.090465 1.000000 -1.220366
vn -0.4963 -0.8605 -0.1152
vn 0.0000 1.0000 0.0000
vn 0.9535 -0.2926 0.0723
vn -0.0547 -0.0914 0.9943
vn -0.9884 0.1271 -0.0827
vn 0.0499 0.0721 -0.9961
usemtl Material
s off
f 1//1 2//1 3//1 4//1
f 5//2 8//2 7//2 6//2
f 1//3 5//3 6//3 2//3
f 2//4 6//4 7//4 3//4
f 3//5 7//5 8//5 4//5
f 5//6 1//6 4//6 8//6
