# Blender v2.79 (sub 0) OBJ File: 'untitled.blend'
# www.blender.org
mtllib kostka_000113.mtl
o Cube
v 0.956114 -0.152227 -1.300510
v 1.188634 -0.419704 0.640026
v -0.289863 -1.272910 0.525832
v -0.524961 -1.018385 -1.412839
v 0.909535 1.000000 -1.220365
v 0.909534 1.000000 0.779635
v -1.090465 1.000000 0.779634
v -1.090465 1.000000 -1.220366
vn 0.5046 -0.8455 -0.1746
vn 0.0000 1.0000 0.0000
vn 0.9903 0.1296 -0.0496
vn -0.0062 -0.1077 0.9942
vn -0.9511 -0.3066 0.0370
vn 0.0103 0.0876 -0.9961
usemtl Material
s off
f 1//1 2//1 3//1 4//1
f 5//2 8//2 7//2 6//2
f 1//3 5//3 6//3 2//3
f 2//4 6//4 7//4 3//4
f 3//5 7//5 8//5 4//5
f 5//6 1//6 4//6 8//6
