# Blender v2.79 (sub 0) OBJ File: 'untitled.blend'
# www.blender.org
mtllib kostka_000083.mtl
o Cube
v 0.228898 -1.121513 -1.296692
v -0.086242 -1.089533 0.646884
v -1.333882 -0.120147 0.531720
v -0.993212 -0.142762 -1.410142
v 0.909535 1.000000 -1.220365
v 0.909534 1.000000 0.779635
v -1.090465 1.000000 0.779634
v -1.090465 1.000000 -1.220366
vn -0.6114 -0.7859 -0.0922
vn 0.0000 1.0000 0.0000
vn 0.9250 -0.3721 0.0769
vn -0.0631 -0.0935 0.9936
vn -0.9930 0.0808 -0.0863
vn 0.0566 0.0711 -0.9959
usemtl Material
s off
f 1//1 2//1 3//1 4//1
f 5//2 8//2 7//2 6//2
f 1//3 5//3 6//3 2//3
f 2//4 6//4 7//4 3//4
f 3//5 7//5 8//5 4//5
f 5//6 1//6 4//6 8//6
