# Blender v2.79 (sub 0) OBJ File: 'untitled.blend'
# www.blender.org
mtllib kostka_000065.mtl
o Cube
v -0.159719 -0.806986 -1.300255
v -0.352508 -0.552783 0.641288
v -0.845078 0.299294 0.528201
v -0.617664 0.042550 -1.411501
v 0.909535 1.000000 -1.220365
v 0.909534 1.000000 0.779635
v -1.090465 1.000000 0.779634
v -1.090465 1.000000 -1.220366
vn -0.8710 -0.4904 -0.0297
vn 0.0000 1.0000 0.0000
vn 0.8168 -0.5718 0.0768
vn -0.0894 -0.1305 0.9874
vn -0.9199 -0.3911 -0.0276
vn 0.0732 0.0817 -0.9940
usemtl Material
s off
f 1//1 2//1 3//1 4//1
f 5//2 8//2 7//2 6//2
f 1//3 5//3 6//3 2//3
f 2//4 6//4 7//4 3//4
f 3//5 7//5 8//5 4//5
f 5//6 1//6 4//6 8//6
