# Blender v2.79 (sub 0) OBJ File: 'untitled.blend'
# www.blender.org
mtllib kostka_000116.mtl
o Cube
v 0.911116 -0.089756 -1.300867
v 1.172209 -0.327212 0.640217
v -0.198527 -1.230695 0.527335
v -0.461364 -1.008401 -1.411883
v 0.909535 1.000000 -1.220365
v 0.909534 1.000000 0.779635
v -1.090465 1.000000 0.779634
v -1.090465 1.000000 -1.220366
vn 0.5548 -0.8142 -0.1714
vn 0.0000 1.0000 0.0000
vn 0.9918 0.1138 -0.0588
vn -0.0036 -0.1106 0.9939
vn -0.9389 -0.3414 0.0434
vn 0.0085 0.0892 -0.9960
usemtl Material
s off
f 1//1 2//1 3//1 4//1
f 5//2 8//2 7//2 6//2
f 1//3 5//3 6//3 2//3
f 2//4 6//4 7//4 3//4
f 3//5 7//5 8//5 4//5
f 5//6 1//6 4//6 8//6
