# Blender v2.79 (sub 0) OBJ File: 'untitled.blend'
# www.blender.org
mtllib kostka_000028.mtl
o Cube
v 0.364637 -1.141294 -1.302309
v 0.041717 -1.183217 0.639031
v -1.396435 -0.282355 0.526849
v -1.051487 -0.229330 -1.412622
v 0.909535 1.000000 -1.221583
v 0.909534 1.000000 0.778417
v -1.090465 1.000000 0.778416
v -1.090465 1.000000 -1.221583
vn -0.5266 -0.8428 -0.1112
vn 0.0000 1.0000 0.0000
vn 0.9468 -0.3131 0.0742
vn -0.0568 -0.0929 0.9941
vn -0.9891 0.1201 -0.0850
vn 0.0515 0.0726 -0.9960
usemtl Material
s off
f 1//1 2//1 3//1 4//1
f 5//2 8//2 7//2 6//2
f 1//3 5//3 6//3 2//3
f 2//4 6//4 7//4 3//4
f 3//5 7//5 8//5 4//5
f 5//6 1//6 4//6 8//6
