# Blender v2.79 (sub 0) OBJ File: 'untitled.blend'
# www.blender.org
mtllib kostka_000042.mtl
o Cube
v 0.009217 -1.005055 -1.301091
v -0.272790 -0.853528 0.640248
v -1.137368 0.134547 0.528067
v -0.824079 -0.012508 -1.411405
v 0.909535 1.000000 -1.220365
v 0.909534 1.000000 0.779635
v -1.090465 1.000000 0.779634
v -1.090465 1.000000 -1.220366
vn -0.7540 -0.6537 -0.0654
vn 0.0000 1.0000 0.0000
vn 0.8752 -0.4770 0.0810
vn -0.0761 -0.1081 0.9912
vn -0.9923 -0.0982 -0.0752
vn 0.0653 0.0759 -0.9950
usemtl Material
s off
f 1//1 2//1 3//1 4//1
f 5//2 8//2 7//2 6//2
f 1//3 5//3 6//3 2//3
f 2//4 6//4 7//4 3//4
f 3//5 7//5 8//5 4//5
f 5//6 1//6 4//6 8//6
