# Blender v2.79 (sub 0) OBJ File: 'untitled.blend'
# www.blender.org
mtllib kostka_000076.mtl
o Cube
v 0.020889 -1.019598 -1.296044
v -0.258502 -0.874178 0.647168
v -1.155085 0.117671 0.530535
v -0.844938 -0.022856 -1.410975
v 0.909535 1.000000 -1.220365
v 0.909534 1.000000 0.779635
v -1.090465 1.000000 0.779634
v -1.090465 1.000000 -1.220366
vn -0.7432 -0.6661 -0.0638
vn 0.0000 1.0000 0.0000
vn 0.8797 -0.4689 0.0796
vn -0.0754 -0.1036 0.9918
vn -0.9942 -0.0770 -0.0755
vn 0.0654 0.0733 -0.9952
usemtl Material
s off
f 1//1 2//1 3//1 4//1
f 5//2 8//2 7//2 6//2
f 1//3 5//3 6//3 2//3
f 2//4 6//4 7//4 3//4
f 3//5 7//5 8//5 4//5
f 5//6 1//6 4//6 8//6
