# Blender v2.79 (sub 0) OBJ File: 'untitled.blend'
# www.blender.org
mtllib kostka_000079.mtl
o Cube
v 0.106318 -1.073326 -1.295811
v -0.192892 -0.975229 0.647775
v -1.243100 0.022342 0.531374
v -0.915221 -0.068694 -1.410522
v 0.909535 1.000000 -1.220365
v 0.909534 1.000000 0.779635
v -1.090465 1.000000 0.779634
v -1.090465 1.000000 -1.220366
vn -0.6885 -0.7212 -0.0760
vn 0.0000 1.0000 0.0000
vn 0.9004 -0.4279 0.0790
vn -0.0700 -0.0981 0.9927
vn -0.9965 0.0068 -0.0830
vn 0.0617 0.0718 -0.9955
usemtl Material
s off
f 1//1 2//1 3//1 4//1
f 5//2 8//2 7//2 6//2
f 1//3 5//3 6//3 2//3
f 2//4 6//4 7//4 3//4
f 3//5 7//5 8//5 4//5
f 5//6 1//6 4//6 8//6
