# Blender v2.79 (sub 0) OBJ File: 'untitled.blend'
# www.blender.org
mtllib kostka_000117.mtl
o Cube
v 0.901131 -0.077831 -1.300961
v 1.167540 -0.308793 0.640235
v -0.180728 -1.220838 0.527655
v -0.448680 -1.005472 -1.411675
v 0.909535 1.000000 -1.220365
v 0.909534 1.000000 0.779635
v -1.090465 1.000000 0.779634
v -1.090465 1.000000 -1.220366
vn 0.5647 -0.8075 -0.1706
vn 0.0000 1.0000 0.0000
vn 0.9922 0.1094 -0.0607
vn -0.0031 -0.1112 0.9938
vn -0.9363 -0.3484 0.0446
vn 0.0081 0.0895 -0.9960
usemtl Material
s off
f 1//1 2//1 3//1 4//1
f 5//2 8//2 7//2 6//2
f 1//3 5//3 6//3 2//3
f 2//4 6//4 7//4 3//4
f 3//5 7//5 8//5 4//5
f 5//6 1//6 4//6 8//6
