# Blender v2.79 (sub 0) OBJ File: 'untitled.blend'
# www.blender.org
mtllib kostka_000013.mtl
o Cube
v 0.914013 -0.898762 -1.375156
v 0.760313 -1.202753 0.566184
v -1.223083 -1.037095 0.454003
v -1.065088 -0.724864 -1.485469
v 0.909535 1.000000 -1.294429
v 0.909534 1.000000 0.705571
v -1.090465 1.000000 0.705570
v -1.090465 1.000000 -1.294430
vn -0.0752 -0.9839 -0.1623
vn 0.0000 1.0000 0.0000
vn 0.9987 -0.0372 0.0361
vn -0.0318 -0.0897 0.9955
vn -0.9988 0.0329 -0.0375
vn 0.0309 0.0750 -0.9967
usemtl Material
s off
f 1//1 2//1 3//1 4//1
f 5//2 8//2 7//2 6//2
f 1//3 5//3 6//3 2//3
f 2//4 6//4 7//4 3//4
f 3//5 7//5 8//5 4//5
f 5//6 1//6 4//6 8//6
