# Blender v2.79 (sub 0) OBJ File: 'untitled.blend'
# www.blender.org
mtllib kostka_000026.mtl
o Cube
v 0.428086 -1.142446 -1.305990
v 0.109748 -1.217013 0.635350
v -1.413343 -0.362420 0.523169
v -1.074805 -0.276237 -1.416303
v 0.909535 1.000000 -1.225263
v 0.909534 1.000000 0.774737
v -1.090465 1.000000 0.774736
v -1.090465 1.000000 -1.225264
vn -0.4843 -0.8669 -0.1179
vn 0.0000 1.0000 0.0000
vn 0.9560 -0.2846 0.0718
vn -0.0539 -0.0917 0.9943
vn -0.9883 0.1288 -0.0821
vn 0.0493 0.0725 -0.9962
usemtl Material
s off
f 1//1 2//1 3//1 4//1
f 5//2 8//2 7//2 6//2
f 1//3 5//3 6//3 2//3
f 2//4 6//4 7//4 3//4
f 3//5 7//5 8//5 4//5
f 5//6 1//6 4//6 8//6
