# Blender v2.79 (sub 0) OBJ File: 'untitled.blend'
# www.blender.org
mtllib kostka_000091.mtl
o Cube
v 0.468966 -1.139174 -1.301875
v 0.153890 -1.235353 0.638901
v -1.420296 -0.414114 0.527031
v -1.086174 -0.306065 -1.411848
v 0.909535 1.000000 -1.220365
v 0.909534 1.000000 0.779635
v -1.090465 1.000000 0.779634
v -1.090465 1.000000 -1.220366
vn -0.4570 -0.8809 -0.1228
vn 0.0000 1.0000 0.0000
vn 0.9613 -0.2664 0.0704
vn -0.0522 -0.0917 0.9944
vn -0.9881 0.1313 -0.0802
vn 0.0479 0.0729 -0.9962
usemtl Material
s off
f 1//1 2//1 3//1 4//1
f 5//2 8//2 7//2 6//2
f 1//3 5//3 6//3 2//3
f 2//4 6//4 7//4 3//4
f 3//5 7//5 8//5 4//5
f 5//6 1//6 4//6 8//6
