# Blender v2.79 (sub 0) OBJ File: 'untitled.blend'
# www.blender.org
mtllib kostka_000058.mtl
o Cube
v -0.172778 -0.780131 -1.301091
v -0.354232 -0.516896 0.640249
v -0.808228 0.310241 0.528067
v -0.591926 0.043593 -1.411405
v 0.909535 1.000000 -1.220365
v 0.909534 1.000000 0.779635
v -1.090465 1.000000 0.779634
v -1.090465 1.000000 -1.220366
vn -0.8822 -0.4701 -0.0262
vn 0.0000 1.0000 0.0000
vn 0.8100 -0.5815 0.0761
vn -0.0905 -0.1346 0.9868
vn -0.9055 -0.4238 -0.0210
vn 0.0736 0.0830 -0.9938
usemtl Material
s off
f 1//1 2//1 3//1 4//1
f 5//2 8//2 7//2 6//2
f 1//3 5//3 6//3 2//3
f 2//4 6//4 7//4 3//4
f 3//5 7//5 8//5 4//5
f 5//6 1//6 4//6 8//6
