# Blender v2.79 (sub 0) OBJ File: 'untitled.blend'
# www.blender.org
mtllib kostka_000015.mtl
o Cube
v 0.856482 -0.961992 -1.362293
v 0.665653 -1.241624 0.579047
v -1.289145 -0.948846 0.466866
v -1.091877 -0.659580 -1.472606
v 0.909535 1.000000 -1.281567
v 0.909534 1.000000 0.718434
v -1.090465 1.000000 0.718433
v -1.090465 1.000000 -1.281567
vn -0.1401 -0.9776 -0.1573
vn 0.0000 1.0000 0.0000
vn 0.9964 -0.0726 0.0431
vn -0.0348 -0.0892 0.9954
vn -0.9971 0.0609 -0.0455
vn 0.0335 0.0743 -0.9967
usemtl Material
s off
f 1//1 2//1 3//1 4//1
f 5//2 8//2 7//2 6//2
f 1//3 5//3 6//3 2//3
f 2//4 6//4 7//4 3//4
f 3//5 7//5 8//5 4//5
f 5//6 1//6 4//6 8//6
