# Blender v2.79 (sub 0) OBJ File: 'untitled.blend'
# www.blender.org
mtllib kostka_000038.mtl
o Cube
v 0.106493 -1.068104 -1.301091
v -0.199927 -0.971624 0.640249
v -1.240895 0.026716 0.528067
v -0.905530 -0.062732 -1.411405
v 0.909535 1.000000 -1.220365
v 0.909534 1.000000 0.779635
v -1.090465 1.000000 0.779634
v -1.090465 1.000000 -1.220366
vn -0.6918 -0.7177 -0.0800
vn 0.0000 1.0000 0.0000
vn 0.8992 -0.4301 0.0804
vn -0.0700 -0.1018 0.9923
vn -0.9964 0.0016 -0.0849
vn 0.0613 0.0743 -0.9954
usemtl Material
s off
f 1//1 2//1 3//1 4//1
f 5//2 8//2 7//2 6//2
f 1//3 5//3 6//3 2//3
f 2//4 6//4 7//4 3//4
f 3//5 7//5 8//5 4//5
f 5//6 1//6 4//6 8//6
