# Blender v2.79 (sub 0) OBJ File: 'untitled.blend'
# www.blender.org
mtllib kostka_000100.mtl
o Cube
v 0.887795 -0.926521 -1.303431
v 0.709614 -1.228457 0.633870
v -1.260392 -0.994603 0.519305
v -1.076728 -0.683470 -1.416003
v 0.909535 1.000000 -1.220365
v 0.909534 1.000000 0.779635
v -1.090465 1.000000 0.779634
v -1.090465 1.000000 -1.220366
vn -0.1093 -0.9802 -0.1654
vn 0.0000 1.0000 0.0000
vn 0.9976 -0.0555 0.0409
vn -0.0342 -0.0927 0.9951
vn -0.9979 0.0477 -0.0428
vn 0.0330 0.0769 -0.9965
usemtl Material
s off
f 1//1 2//1 3//1 4//1
f 5//2 8//2 7//2 6//2
f 1//3 5//3 6//3 2//3
f 2//4 6//4 7//4 3//4
f 3//5 7//5 8//5 4//5
f 5//6 1//6 4//6 8//6
