# Blender v2.79 (sub 0) OBJ File: 'untitled.blend'
# www.blender.org
mtllib kostka_000051.mtl
o Cube
v -0.136720 -0.844350 -1.301091
v -0.348180 -0.604850 0.640249
v -0.898329 0.280218 0.528067
v -0.652579 0.039436 -1.411405
v 0.909535 1.000000 -1.220365
v 0.909534 1.000000 0.779635
v -1.090465 1.000000 0.779634
v -1.090465 1.000000 -1.220366
vn -0.8539 -0.5192 -0.0363
vn 0.0000 1.0000 0.0000
vn 0.8267 -0.5572 0.0782
vn -0.0873 -0.1262 0.9882
vn -0.9389 -0.3421 -0.0377
vn 0.0719 0.0807 -0.9941
usemtl Material
s off
f 1//1 2//1 3//1 4//1
f 5//2 8//2 7//2 6//2
f 1//3 5//3 6//3 2//3
f 2//4 6//4 7//4 3//4
f 3//5 7//5 8//5 4//5
f 5//6 1//6 4//6 8//6
