# Blender v2.79 (sub 0) OBJ File: 'untitled.blend'
# www.blender.org
mtllib kostka_000049.mtl
o Cube
v -0.115013 -0.876189 -1.301091
v -0.341037 -0.650421 0.640248
v -0.943933 0.260482 0.528067
v -0.684006 0.034518 -1.411405
v 0.909535 1.000000 -1.220365
v 0.909534 1.000000 0.779635
v -1.090465 1.000000 0.779634
v -1.090465 1.000000 -1.220366
vn -0.8380 -0.5442 -0.0416
vn 0.0000 1.0000 0.0000
vn 0.8354 -0.5439 0.0791
vn -0.0854 -0.1223 0.9888
vn -0.9537 -0.2974 -0.0459
vn 0.0709 0.0797 -0.9943
usemtl Material
s off
f 1//1 2//1 3//1 4//1
f 5//2 8//2 7//2 6//2
f 1//3 5//3 6//3 2//3
f 2//4 6//4 7//4 3//4
f 3//5 7//5 8//5 4//5
f 5//6 1//6 4//6 8//6
