# Blender v2.79 (sub 0) OBJ File: 'untitled.blend'
# www.blender.org
mtllib kostka_000064.mtl
o Cube
v -0.165210 -0.796172 -1.300547
v -0.353383 -0.538229 0.640923
v -0.830171 0.303945 0.528147
v -0.607279 0.043108 -1.411472
v 0.909535 1.000000 -1.220365
v 0.909534 1.000000 0.779635
v -1.090465 1.000000 0.779634
v -1.090465 1.000000 -1.220366
vn -0.8756 -0.4822 -0.0283
vn 0.0000 1.0000 0.0000
vn 0.8140 -0.5757 0.0765
vn -0.0899 -0.1321 0.9872
vn -0.9142 -0.4045 -0.0249
vn 0.0734 0.0822 -0.9939
usemtl Material
s off
f 1//1 2//1 3//1 4//1
f 5//2 8//2 7//2 6//2
f 1//3 5//3 6//3 2//3
f 2//4 6//4 7//4 3//4
f 3//5 7//5 8//5 4//5
f 5//6 1//6 4//6 8//6
