# Blender v2.79 (sub 0) OBJ File: 'untitled.blend'
# www.blender.org
mtllib kostka_000115.mtl
o Cube
v 0.923796 -0.105804 -1.300755
v 1.177660 -0.351584 0.640182
v -0.222281 -1.242984 0.526924
v -0.478136 -1.011789 -1.412148
v 0.909535 1.000000 -1.220365
v 0.909534 1.000000 0.779635
v -1.090465 1.000000 0.779634
v -1.090465 1.000000 -1.220366
vn 0.5416 -0.8228 -0.1723
vn 0.0000 1.0000 0.0000
vn 0.9913 0.1190 -0.0564
vn -0.0043 -0.1098 0.9939
vn -0.9423 -0.3322 0.0417
vn 0.0090 0.0888 -0.9960
usemtl Material
s off
f 1//1 2//1 3//1 4//1
f 5//2 8//2 7//2 6//2
f 1//3 5//3 6//3 2//3
f 2//4 6//4 7//4 3//4
f 3//5 7//5 8//5 4//5
f 5//6 1//6 4//6 8//6
