# Blender v2.79 (sub 0) OBJ File: 'untitled.blend'
# www.blender.org
mtllib kostka_000110.mtl
o Cube
v 1.012977 -0.265889 -1.300270
v 1.191082 -0.574420 0.639400
v -0.449593 -1.317561 0.523614
v -0.631051 -1.018171 -1.414186
v 0.909535 1.000000 -1.220365
v 0.909534 1.000000 0.779635
v -1.090465 1.000000 0.779634
v -1.090465 1.000000 -1.220366
vn 0.4180 -0.8908 -0.1784
vn 0.0000 1.0000 0.0000
vn 0.9900 0.1368 -0.0340
vn -0.0105 -0.1037 0.9945
vn -0.9683 -0.2484 0.0257
vn 0.0135 0.0854 -0.9963
usemtl Material
s off
f 1//1 2//1 3//1 4//1
f 5//2 8//2 7//2 6//2
f 1//3 5//3 6//3 2//3
f 2//4 6//4 7//4 3//4
f 3//5 7//5 8//5 4//5
f 5//6 1//6 4//6 8//6
