# Blender v2.79 (sub 0) OBJ File: 'untitled.blend'
# www.blender.org
mtllib kostka_000072.mtl
o Cube
v -0.072298 -0.933930 -1.297335
v -0.317956 -0.734669 0.645170
v -1.025350 0.216224 0.529317
v -0.746806 0.018720 -1.411440
v 0.909535 1.000000 -1.220365
v 0.909534 1.000000 0.779635
v -1.090465 1.000000 0.779634
v -1.090465 1.000000 -1.220366
vn -0.8055 -0.5906 -0.0484
vn 0.0000 1.0000 0.0000
vn 0.8519 -0.5176 0.0792
vn -0.0822 -0.1134 0.9902
vn -0.9757 -0.2114 -0.0584
vn 0.0696 0.0762 -0.9947
usemtl Material
s off
f 1//1 2//1 3//1 4//1
f 5//2 8//2 7//2 6//2
f 1//3 5//3 6//3 2//3
f 2//4 6//4 7//4 3//4
f 3//5 7//5 8//5 4//5
f 5//6 1//6 4//6 8//6
