# Blender v2.79 (sub 0) OBJ File: 'untitled.blend'
# www.blender.org
mtllib kostka_000034.mtl
o Cube
v 0.210067 -1.111686 -1.301091
v -0.110267 -1.071895 0.640249
v -1.321303 -0.093830 0.528067
v -0.974693 -0.124543 -1.411405
v 0.909535 1.000000 -1.220365
v 0.909534 1.000000 0.779635
v -1.090465 1.000000 0.779634
v -1.090465 1.000000 -1.220366
vn -0.6262 -0.7740 -0.0936
vn 0.0000 1.0000 0.0000
vn 0.9206 -0.3825 0.0787
vn -0.0643 -0.0972 0.9932
vn -0.9937 0.0691 -0.0880
vn 0.0572 0.0733 -0.9957
usemtl Material
s off
f 1//1 2//1 3//1 4//1
f 5//2 8//2 7//2 6//2
f 1//3 5//3 6//3 2//3
f 2//4 6//4 7//4 3//4
f 3//5 7//5 8//5 4//5
f 5//6 1//6 4//6 8//6
