# Blender v2.79 (sub 0) OBJ File: 'untitled.blend'
# www.blender.org
mtllib kostka_000108.mtl
o Cube
v 1.043902 -0.375527 -1.300371
v 1.167271 -0.710744 0.638585
v -0.597513 -1.329938 0.521928
v -0.724277 -1.000387 -1.415146
v 0.909535 1.000000 -1.220365
v 0.909534 1.000000 0.779635
v -1.090465 1.000000 0.779634
v -1.090465 1.000000 -1.220366
vn 0.3372 -0.9240 -0.1802
vn 0.0000 1.0000 0.0000
vn 0.9916 0.1274 -0.0202
vn -0.0142 -0.1008 0.9948
vn -0.9805 -0.1961 0.0152
vn 0.0165 0.0835 -0.9964
usemtl Material
s off
f 1//1 2//1 3//1 4//1
f 5//2 8//2 7//2 6//2
f 1//3 5//3 6//3 2//3
f 2//4 6//4 7//4 3//4
f 3//5 7//5 8//5 4//5
f 5//6 1//6 4//6 8//6
