# Blender v2.79 (sub 0) OBJ File: 'untitled.blend'
# www.blender.org
mtllib kostka_000031.mtl
o Cube
v 0.286315 -1.131185 -1.301091
v -0.037805 -1.132102 0.640248
v -1.364562 -0.185636 0.528067
v -1.016224 -0.174501 -1.411405
v 0.909535 1.000000 -1.220365
v 0.909534 1.000000 0.779635
v -1.090465 1.000000 0.779634
v -1.090465 1.000000 -1.220366
vn -0.5775 -0.8099 -0.1026
vn 0.0000 1.0000 0.0000
vn 0.9343 -0.3481 0.0768
vn -0.0605 -0.0948 0.9937
vn -0.9911 0.1003 -0.0874
vn 0.0544 0.0728 -0.9959
usemtl Material
s off
f 1//1 2//1 3//1 4//1
f 5//2 8//2 7//2 6//2
f 1//3 5//3 6//3 2//3
f 2//4 6//4 7//4 3//4
f 3//5 7//5 8//5 4//5
f 5//6 1//6 4//6 8//6
